<svg xmlns="http://www.w3.org/2000/svg" width="64" height="64" viewBox="0 0 64 64">
  <rect width="64" height="64" rx="14" fill="#2D7DD2"/>
  <path d="M20 28c0-4.4 3.6-8 8-8h8c4.4 0 8 3.6 8 8v8c0 4.4-3.6 8-8 8h-3l-6 5v-5h-1c-4.4 0-8-3.6-8-8v-8z" fill="white" opacity="0.95"/>
  <circle cx="26" cy="32" r="2.5" fill="#2D7DD2"/>
  <circle cx="36" cy="32" r="2.5" fill="#2D7DD2"/>
  <path d="M22 38c2 2 5 3 8 3s6-1 8-3" stroke="#2D7DD2" stroke-width="2" fill="none" stroke-linecap="round"/>
  <path d="M12 18c-3 4-5 9-5 14s2 10 5 14" stroke="white" stroke-width="2.5" fill="none" stroke-linecap="round" opacity="0.6"/>
  <path d="M52 18c3 4 5 9 5 14s-2 10-5 14" stroke="white" stroke-width="2.5" fill="none" stroke-linecap="round" opacity="0.6"/>
</svg>